<?xml version="1.0" encoding="UTF-8"?><svg id="a" xmlns="http://www.w3.org/2000/svg" width="512" height="512" viewBox="0 0 512 512"><path d="M104.118,498.141L28.064,291.453l1.429-3.03C80.841,179.524,151.35,93.031,251.388,16.222l4.872-3.741,4.872,3.741c100.039,76.809,170.548,163.302,221.896,272.201l1.429,3.03-76.053,206.688H104.118ZM247.167,443.383c3.03,2.587,6.191,5.544,9.094,8.661,2.904-3.118,6.064-6.074,9.094-8.66-4.118-5.724-7.045-12.622-9.094-19.983-2.049,7.361-4.976,14.26-9.094,19.982ZM255.32,318.604c.019,0,.292.109.94.109.712,0,.972-.132.975-.133.121-.136.673-1.239.519-3.666-.126-1.971-.663-4.062-1.493-6.034-.83,1.973-1.368,4.062-1.493,6.033-.154,2.413.391,3.519.551,3.69h0ZM394.251,285.41c7.36,2.049,14.259,4.976,19.982,9.095,2.586-3.03,5.544-6.191,8.661-9.095-3.117-2.902-6.075-6.063-8.661-9.095-5.724,4.119-12.622,7.046-19.982,9.095ZM89.626,285.41c3.117,2.903,6.075,6.064,8.661,9.095,5.724-4.119,12.622-7.046,19.982-9.095-7.361-2.049-14.259-4.976-19.982-9.095-2.586,3.031-5.544,6.192-8.661,9.095ZM279.76,285.41c2.263.952,4.664,1.52,6.815,1.52,1.879,0,2.743-.451,2.88-.578-.008,0,.109-.27.109-.941,0-.712-.132-.973-.133-.975-.101-.087-.964-.545-2.856-.545-2.151,0-4.553.567-6.815,1.52ZM223.066,284.469c.008,0-.109.27-.109.941,0,.712.132.973.133.975.101.087.964.545,2.856.545,2.152,0,4.553-.567,6.815-1.52-2.263-.952-4.664-1.52-6.815-1.52-1.879,0-2.743.451-2.88.578ZM256.26,252.106c-.712,0-.972.132-.974.133-.121.136-.674,1.239-.519,3.667.125,1.97.663,4.061,1.493,6.034.83-1.973,1.367-4.063,1.493-6.035.153-2.413-.392-3.517-.552-3.69t0,0c-.019,0-.292-.109-.941-.109ZM247.166,127.438c4.119,5.724,7.045,12.622,9.094,19.982,2.049-7.36,4.976-14.259,9.094-19.983-3.03-2.586-6.191-5.543-9.094-8.661-2.903,3.118-6.064,6.075-9.094,8.661Z" fill="#1a1715" fill-rule="evenodd"/><path d="M256.26,22.567c101.004,77.551,169.721,163.631,219.531,269.267-24.323,66.102-48.647,132.204-72.969,198.306H109.699c-24.323-66.102-48.646-132.204-72.969-198.306C86.54,186.198,155.256,100.118,256.26,22.567M252.65,218.682h7.221v-34.005c0-18.228,2.538-45.819,17.141-58.231-7.485-5.375-16.162-13.532-20.751-20.349-4.589,6.817-13.266,14.973-20.751,20.349,14.603,12.412,17.14,40.003,17.14,58.231v34.005M273.719,220.242h5.86v-32.87c0-33.098,12.291-55.221,37.277-57.107-1.56-1.582-5.721-7.394-15.223-7.393-.021,0-.043,0-.064,0-25.037.069-27.851,36.235-27.851,61.13v36.241M232.942,220.242h5.86v-36.241c0-24.895-2.813-61.061-27.851-61.13-.022,0-.042,0-.064,0-9.501,0-13.662,5.811-15.222,7.393,24.986,1.886,37.276,24.009,37.276,57.107v32.87M285.421,245.02h5.86v-32.87c0-33.098,12.29-55.222,37.276-57.107-1.561-1.582-5.72-7.394-15.222-7.393-.021,0-.043,0-.064,0-25.038.068-27.851,36.235-27.851,61.13v36.241M221.239,245.02h5.861v-36.241c0-24.895-2.813-61.061-27.851-61.13-.022,0-.042,0-.064,0-9.501,0-13.662,5.811-15.222,7.393,24.986,1.885,37.276,24.008,37.276,57.107v32.87M296.65,256.25h36.241c24.895,0,61.061-2.814,61.13-27.851.026-9.546-5.807-13.723-7.393-15.286-1.885,24.986-24.008,37.277-57.107,37.277h-32.871v5.861M179.63,256.25h36.241v-5.861h-32.87c-33.099,0-55.222-12.29-57.108-37.277-1.585,1.564-7.419,5.74-7.393,15.286.068,25.037,36.235,27.851,61.13,27.851M321.428,267.952h36.241c24.895,0,61.061-2.814,61.13-27.851.026-9.546-5.807-13.722-7.393-15.286-1.885,24.985-24.008,37.276-57.107,37.276h-32.871v5.86M154.852,267.952h36.241v-5.86h-32.87c-33.099,0-55.222-12.291-57.108-37.276-1.585,1.564-7.419,5.739-7.393,15.286.068,25.037,36.235,27.851,61.129,27.851M256.26,275.218c11.049-8.891,14.237-31.111,0-31.111s-11.048,22.221,0,31.111M322.989,289.021h34.005c18.229,0,45.819,2.538,58.231,17.14,5.376-7.485,13.532-16.161,20.349-20.75-6.817-4.589-14.974-13.266-20.349-20.752-12.412,14.603-40.003,17.141-58.231,17.141h-34.005v7.221M97.296,306.161c12.413-14.602,40.003-17.14,58.231-17.14h34.005v-7.221h-34.005c-18.228,0-45.819-2.538-58.231-17.141-5.375,7.486-13.532,16.162-20.349,20.752,6.817,4.589,14.973,13.265,20.349,20.75M286.575,294.93c6.104,0,10.989-2.845,10.989-9.52s-4.884-9.52-10.989-9.52c-6.916,0-15.4,3.651-20.122,9.52,4.723,5.869,13.205,9.52,20.122,9.52M225.946,294.93c6.916,0,15.4-3.651,20.121-9.52-4.722-5.869-13.205-9.52-20.121-9.52-6.104,0-10.99,2.845-10.99,9.52s4.884,9.52,10.99,9.52M256.26,326.714c14.237,0,11.049-22.221,0-31.111-11.048,8.89-14.237,31.111,0,31.111M321.428,308.729h32.871c33.099,0,55.222,12.291,57.107,37.277,1.586-1.564,7.419-5.74,7.393-15.286-.069-25.038-36.235-27.851-61.13-27.851h-36.241v5.86M101.115,346.006c1.886-24.986,24.009-37.277,57.108-37.277h32.87v-5.86h-36.241c-24.895,0-61.061,2.813-61.129,27.851-.026,9.546,5.807,13.723,7.393,15.286M296.65,320.432h32.871c33.099,0,55.222,12.29,57.107,37.276,1.586-1.564,7.419-5.739,7.393-15.286-.069-25.038-36.235-27.851-61.13-27.851h-36.241v5.86M125.893,357.708c1.886-24.986,24.009-37.276,57.108-37.276h32.87v-5.86h-36.241c-24.895,0-61.062,2.813-61.13,27.851-.026,9.546,5.807,13.722,7.393,15.286M313.336,423.171c9.501,0,13.662-5.811,15.222-7.393-24.986-1.886-37.276-24.009-37.276-57.107v-32.871h-5.86v36.241c0,24.895,2.813,61.061,27.851,61.13.022,0,.042,0,.064,0M199.185,423.171c.021,0,.043,0,.064,0,25.038-.069,27.851-36.235,27.851-61.13v-36.241h-5.861v32.871c0,33.098-12.29,55.221-37.276,57.107,1.56,1.582,5.72,7.393,15.222,7.393M301.635,447.948c9.499,0,13.66-5.81,15.22-7.392-24.986-1.885-37.277-24.009-37.277-57.107v-32.871h-5.86v36.241c0,24.895,2.814,61.061,27.851,61.129.022,0,.044,0,.066,0M210.886,447.948c.021,0,.044,0,.066,0,25.037-.068,27.851-36.234,27.851-61.129v-36.241h-5.86v32.871c0,33.098-12.291,55.222-37.276,57.107,1.56,1.582,5.72,7.392,15.22,7.392M256.26,464.724c4.589-6.817,13.266-14.974,20.751-20.349-14.603-12.412-17.141-40.003-17.141-58.231v-34.005h-7.221v34.005c0,18.228-2.538,45.819-17.14,58.231,7.485,5.375,16.162,13.532,20.751,20.349M256.26,2.395l-9.744,7.481C145.429,87.491,74.17,174.917,22.257,285.011l-2.858,6.061,2.314,6.288,72.969,198.306,3.854,10.475h315.447l3.854-10.475,72.969-198.306,2.314-6.288-2.858-6.061c-51.911-110.094-123.172-197.52-224.259-275.134l-9.744-7.481h0Z" fill="#efebe4"/></svg>