<?xml version="1.0" encoding="UTF-8"?><svg id="a" xmlns="http://www.w3.org/2000/svg" width="213.36" height="67.652" viewBox="0 0 213.36 67.652"><path d="M2.611,56.813c-.518,0-.931-.154-1.239-.463-.309-.309-.462-.733-.462-1.276,0-.519.154-.925.462-1.221.308-.297.733-.444,1.276-.444s.962.147,1.258.444c.296.296.444.702.444,1.221,0,1.159-.58,1.739-1.739,1.739Z" fill="#FAF8F5"/><path d="M14.192,56.59c-.592,0-1.326-.037-2.202-.11-.875-.074-1.683-.111-2.423-.111-.765,0-1.468.013-2.109.037-.642.024-1.221.037-1.739.037-.074,0-.111-.074-.111-.223,0-.147.037-.222.111-.222.74,0,1.301-.062,1.684-.185.382-.123.672-.37.87-.74.197-.37.357-.912.481-1.628l3.034-17.131c.197-1.061.16-1.751-.111-2.072-.271-.32-.938-.481-1.998-.481-.049,0-.074-.074-.074-.222s.024-.222.074-.222c.518,0,1.116.019,1.794.056.678.037,1.388.055,2.128.055.69,0,1.412-.03,2.164-.092.752-.062,1.437-.093,2.054-.093,2.318,0,4.267.488,5.846,1.462,1.578.975,2.707,2.307,3.385,3.995.678,1.69.833,3.621.462,5.791-.321,1.85-.919,3.521-1.794,5.014-.876,1.492-1.93,2.763-3.164,3.811-1.233,1.049-2.571,1.856-4.014,2.424-1.443.567-2.893.851-4.348.851ZM13.97,55.999c1.677,0,3.225-.413,4.644-1.239s2.627-2.035,3.626-3.626,1.708-3.533,2.127-5.828c.247-1.479.308-2.904.185-4.273-.124-1.368-.444-2.596-.962-3.681-.518-1.086-1.258-1.943-2.22-2.572-.962-.629-2.159-.943-3.589-.943-1.11,0-1.905.173-2.386.518-.481.346-.82,1.024-1.018,2.034l-2.923,16.65c-.198,1.012-.136,1.758.185,2.238.32.481,1.098.722,2.331.722Z" fill="#FAF8F5"/><path d="M32.211,56.776c-.666,0-1.104-.277-1.313-.833-.21-.555-.179-1.485.092-2.793l1.517-7.696c.271-1.381.062-2.072-.629-2.072-.272,0-.617.143-1.036.426-.419.284-.876.685-1.369,1.202-.074.1-.167.093-.277-.019-.111-.11-.117-.203-.019-.277.863-.986,1.64-1.714,2.331-2.183.69-.469,1.356-.703,1.998-.703.69,0,1.134.271,1.332.814.197.542.172,1.418-.074,2.627l-1.517,7.881c-.148.739-.161,1.264-.037,1.572.123.309.32.463.592.463s.61-.142,1.018-.426c.407-.283.845-.66,1.313-1.129.098-.098.197-.092.296.019.099.111.099.204,0,.277-.79.938-1.523,1.646-2.201,2.128-.679.48-1.351.722-2.017.722ZM34.579,37.61c-.542,0-.968-.148-1.276-.444-.309-.296-.462-.728-.462-1.295,0-.518.154-.925.462-1.221.308-.296.734-.444,1.276-.444.567,0,.999.148,1.295.444.296.296.444.703.444,1.221,0,1.16-.58,1.739-1.739,1.739Z" fill="#FAF8F5"/><path d="M40.277,56.739c-.395,0-.654-.025-.777-.074-.124-.05-.185-.111-.185-.185,0-.074.068-.407.204-.999.135-.593.252-1.185.352-1.776l1.332-7.289c.148-.813.203-1.431.167-1.85-.037-.419-.13-.722-.278-.907-.148-.185-.333-.277-.555-.277-.296,0-.635.143-1.018.426-.383.284-.771.61-1.166.98-.074.074-.161.062-.259-.037-.099-.098-.111-.185-.037-.259.789-.912,1.517-1.585,2.183-2.017.666-.432,1.319-.647,1.961-.647.468,0,.833.136,1.091.407s.407.728.444,1.369c.037.642-.043,1.517-.24,2.627l-1.776,9.879c-.074.419-.555.629-1.443.629ZM41.72,56.11l-.37-.037c.222-1.159.505-2.393.851-3.7.345-1.307.74-2.584,1.184-3.829.444-1.246.925-2.374,1.443-3.386.518-1.011,1.054-1.819,1.609-2.424.555-.604,1.128-.906,1.721-.906.345,0,.696.093,1.054.277.357.186.647.438.87.759s.296.679.222,1.073c-.05.32-.191.592-.426.813-.235.222-.537.333-.906.333s-.66-.099-.87-.296c-.21-.197-.395-.395-.555-.592-.161-.197-.376-.296-.647-.296-.321,0-.679.283-1.073.851-.395.567-.802,1.308-1.221,2.22-.419.913-.82,1.919-1.203,3.016-.382,1.099-.721,2.184-1.017,3.256-.296,1.073-.518,2.029-.666,2.868Z" fill="#FAF8F5"/><path d="M55.262,56.886c-1.357,0-2.418-.346-3.182-1.035-.765-.69-1.264-1.592-1.499-2.701-.235-1.11-.24-2.294-.019-3.553.172-.937.518-1.874,1.036-2.812s1.159-1.788,1.924-2.553,1.628-1.382,2.59-1.851c.962-.468,1.985-.703,3.071-.703.937,0,1.634.18,2.09.537s.648.845.574,1.461c-.099.593-.438,1.172-1.018,1.739-.58.567-1.326,1.073-2.238,1.518-.913.443-1.937.826-3.071,1.146-1.135.321-2.294.543-3.478.666l.074-.48c1.85-.271,3.404-.709,4.662-1.314,1.258-.604,1.985-1.437,2.183-2.497.148-.616.056-1.066-.277-1.351-.333-.283-.746-.426-1.239-.426-.74,0-1.394.26-1.961.777s-1.036,1.209-1.406,2.072-.642,1.812-.814,2.849c-.247,1.332-.272,2.534-.074,3.607.197,1.073.604,1.931,1.221,2.571.616.643,1.443.963,2.479.963.567,0,1.166-.087,1.794-.26.629-.172,1.24-.493,1.832-.962.049-.049.117-.024.204.074.086.099.104.185.055.259-.938.814-1.868,1.395-2.793,1.739-.925.345-1.832.518-2.719.518Z" fill="#FAF8F5"/><path d="M68.138,56.923c-1.086,0-1.968-.24-2.646-.722-.679-.48-1.197-1.109-1.554-1.887-.358-.776-.568-1.634-.629-2.571-.062-.938.006-1.862.204-2.775.296-1.528.875-2.836,1.739-3.922.863-1.085,1.856-1.917,2.979-2.497,1.122-.579,2.226-.87,3.312-.87.592,0,1.147.087,1.665.26s.931.432,1.239.776c.308.346.438.766.389,1.258-.025.37-.161.685-.407.944-.247.259-.592.388-1.036.388s-.777-.135-.999-.406-.383-.579-.481-.926c-.099-.319-.272-.635-.518-.943-.247-.308-.666-.462-1.258-.462-.691,0-1.308.229-1.85.685-.543.456-.987,1.079-1.332,1.868-.346.79-.617,1.678-.814,2.664-.222,1.356-.253,2.621-.093,3.792.16,1.172.555,2.116,1.184,2.831.629.716,1.523,1.073,2.683,1.073.715,0,1.393-.16,2.035-.481.641-.32,1.196-.666,1.665-1.036.074-.049.16-.024.259.074.098.099.111.185.037.259-.962.913-1.937,1.579-2.923,1.998-.987.419-1.937.629-2.849.629Z" fill="#FAF8F5"/><path d="M79.644,56.886c-.518,0-1.005-.092-1.461-.277-.457-.185-.795-.523-1.018-1.018-.222-.493-.259-1.196-.111-2.108l1.554-8.362c.172-.888.185-1.443.037-1.665-.148-.222-.58-.333-1.295-.333-.099,0-.136-.086-.111-.259.024-.173.074-.259.148-.259.962,0,1.77-.29,2.423-.87.653-.579,1.129-1.276,1.425-2.09.024-.099.142-.136.352-.111.209.024.302.074.277.147l-2.294,12.84c-.173.962-.117,1.665.167,2.108.283.444.808.666,1.572.666.641,0,1.24-.147,1.795-.443.555-.297,1.104-.666,1.646-1.11.049-.049.123-.024.222.074.098.099.123.173.074.222-1.135,1.012-2.127,1.739-2.979,2.183-.851.444-1.659.666-2.424.666ZM85.046,43.863c-.05,0-.314-.037-.795-.111-.481-.074-1.049-.142-1.702-.203-.654-.062-1.289-.093-1.906-.093l.074-.925c.69,0,1.399-.024,2.127-.074.728-.049,1.381-.099,1.961-.147.58-.05.98-.074,1.203-.074.098,0,.172.037.222.11.049.074.061.161.037.26-.049.197-.198.456-.444.776-.247.321-.506.481-.777.481Z" fill="#FAF8F5"/><path d="M91.817,56.96c-1.233,0-2.238-.346-3.015-1.036-.777-.69-1.295-1.615-1.554-2.774s-.266-2.442-.019-3.849c.296-1.455.826-2.756,1.591-3.903.765-1.146,1.696-2.054,2.794-2.72,1.097-.666,2.275-.999,3.533-.999,1.307,0,2.355.346,3.145,1.036.789.691,1.313,1.616,1.573,2.775.259,1.159.252,2.43-.019,3.811-.321,1.604-.901,2.979-1.739,4.126-.839,1.146-1.813,2.022-2.923,2.627s-2.233.906-3.367.906ZM93.112,56.036c.938,0,1.789-.45,2.553-1.351.764-.9,1.295-2.151,1.591-3.756.172-.986.241-1.967.204-2.941-.037-.974-.191-1.874-.462-2.7-.272-.826-.654-1.486-1.147-1.979-.494-.493-1.11-.74-1.85-.74-.913,0-1.757.443-2.535,1.332-.777.888-1.326,2.158-1.646,3.811-.198,1.012-.271,2.005-.222,2.979.049.975.215,1.869.5,2.683.283.814.678,1.462,1.184,1.942.505.481,1.116.722,1.831.722Z" fill="#FAF8F5"/><path d="M103.841,56.739c-.395,0-.654-.025-.777-.074-.124-.05-.185-.111-.185-.185,0-.074.068-.407.204-.999.135-.593.252-1.185.352-1.776l1.332-7.289c.148-.813.203-1.431.167-1.85-.037-.419-.13-.722-.278-.907-.148-.185-.333-.277-.555-.277-.296,0-.635.143-1.018.426-.383.284-.771.61-1.166.98-.074.074-.161.062-.259-.037-.099-.098-.111-.185-.037-.259.789-.912,1.517-1.585,2.183-2.017.666-.432,1.319-.647,1.961-.647.468,0,.833.136,1.091.407s.407.728.444,1.369-.043,1.517-.24,2.627l-1.776,9.879c-.074.419-.555.629-1.443.629ZM105.285,56.11l-.37-.037c.222-1.159.505-2.393.851-3.7.345-1.307.74-2.584,1.184-3.829.444-1.246.925-2.374,1.443-3.386.518-1.011,1.055-1.819,1.609-2.424.555-.604,1.129-.906,1.721-.906.346,0,.697.093,1.055.277.357.186.646.438.869.759s.297.679.223,1.073c-.051.32-.191.592-.426.813s-.537.333-.906.333c-.371,0-.66-.099-.871-.296-.209-.197-.395-.395-.555-.592s-.375-.296-.646-.296c-.32,0-.68.283-1.073.851-.396.567-.803,1.308-1.222,2.22-.419.913-.82,1.919-1.202,3.016-.383,1.099-.722,2.184-1.018,3.256-.296,1.073-.518,2.029-.666,2.868Z" fill="#FAF8F5"/><path d="M113.053,66.839c-.519,0-.949-.129-1.295-.389-.346-.259-.481-.709-.407-1.35.173-.814.74-1.222,1.702-1.222.518,0,1.018.031,1.498.093.481.062.956.056,1.425-.019s.938-.271,1.406-.592c.542-.37,1.178-1.006,1.905-1.905.728-.901,1.485-1.931,2.275-3.09.789-1.16,1.541-2.35,2.257-3.57.716-1.222,1.326-2.355,1.832-3.404.505-1.048.832-1.893.98-2.534.172-.765.228-1.431.166-1.998s-.179-1.066-.352-1.499c-.173-.431-.339-.813-.499-1.146-.161-.333-.24-.672-.24-1.018,0-.419.147-.759.443-1.018s.679-.389,1.147-.389c.542,0,.943.198,1.202.592.259.396.389.938.389,1.628,0,.839-.197,1.875-.592,3.108-.396,1.233-.938,2.571-1.628,4.015-.691,1.442-1.48,2.898-2.368,4.366-.888,1.467-1.826,2.879-2.812,4.236-.986,1.356-1.992,2.564-3.016,3.626-1.023,1.061-1.997,1.905-2.923,2.534-.925.629-1.757.943-2.497.943ZM120.231,60.882c.123-5.524-.185-9.786-.925-12.783s-1.789-4.495-3.146-4.495c-.32,0-.642.104-.962.314s-.592.536-.813.98c-.05.099-.143.129-.277.092-.136-.036-.191-.104-.167-.203.444-.938.999-1.665,1.665-2.183.666-.519,1.345-.777,2.035-.777.838,0,1.585.413,2.238,1.239.653.827,1.19,1.961,1.609,3.404.42,1.443.709,3.108.87,4.995.16,1.887.179,3.903.056,6.05l-2.184,3.366Z" fill="#FAF8F5"/><path d="M8.77,26.1V8.969c0-.715-.074-1.252-.222-1.609s-.432-.604-.851-.74c-.42-.135-1.061-.204-1.924-.204-.05,0-.074-.074-.074-.222s.024-.222.074-.222c.641,0,1.356.019,2.146.056.789.037,1.615.055,2.479.055,1.06,0,1.998-.019,2.812-.055.814-.037,1.541-.056,2.183-.056.049,0,.074.074.074.222s-.025.222-.074.222c-.888,0-1.554.074-1.998.222-.444.148-.74.407-.888.777-.148.37-.222.913-.222,1.628v17.057c0,.716.074,1.258.222,1.628.148.37.444.617.888.74.444.124,1.11.185,1.998.185.049,0,.074.074.074.222s-.025.222-.074.222c-.666,0-1.4-.012-2.201-.037-.802-.024-1.733-.037-2.793-.037-.864,0-1.702.013-2.516.037-.814.025-1.53.037-2.146.037-.05,0-.074-.074-.074-.222s.024-.222.074-.222c.863,0,1.504-.062,1.924-.185.419-.123.709-.37.87-.74.16-.37.24-.912.24-1.628ZM10.398,17.553v-.962h16.206v.962H10.398ZM25.013,9.043c0-.715-.068-1.258-.204-1.628-.136-.37-.432-.629-.888-.777-.457-.148-1.141-.222-2.054-.222-.074,0-.111-.074-.111-.222s.037-.222.111-.222c.616,0,1.326.019,2.127.056.801.037,1.733.055,2.793.055.863,0,1.714-.019,2.553-.055.838-.037,1.566-.056,2.183-.056.074,0,.111.074.111.222s-.037.222-.111.222c-.864,0-1.511.068-1.943.204-.432.136-.721.383-.869.74s-.222.894-.222,1.609v17.131c0,.716.074,1.258.222,1.628.148.37.438.617.869.74.432.124,1.079.185,1.943.185.074,0,.111.074.111.222s-.037.222-.111.222c-.617,0-1.345-.012-2.183-.037-.839-.024-1.69-.037-2.553-.037-1.061,0-1.992.013-2.793.037-.802.025-1.511.037-2.127.037-.074,0-.111-.074-.111-.222s.037-.222.111-.222c.913,0,1.597-.062,2.054-.185.456-.123.752-.37.888-.74.135-.37.204-.912.204-1.628V9.043Z" fill="#FAF8F5"/><path d="M40.774,26.1c0,.716.068,1.258.204,1.628.135.37.401.617.795.74.395.124.999.185,1.813.185.074,0,.111.074.111.222s-.037.222-.111.222c-.642,0-1.345-.012-2.109-.037-.765-.024-1.604-.037-2.516-.037-.864,0-1.683.013-2.46.037-.777.025-1.486.037-2.127.037-.074,0-.111-.074-.111-.222s.037-.222.111-.222c.789,0,1.394-.062,1.813-.185.419-.123.697-.37.833-.74.135-.37.204-.912.204-1.628V8.969c0-.715-.068-1.252-.204-1.609-.136-.357-.407-.604-.814-.74-.407-.135-1.018-.204-1.832-.204-.074,0-.111-.074-.111-.222s.037-.222.111-.222c.641,0,1.351.019,2.127.056.777.037,1.597.055,2.46.055.913,0,1.758-.019,2.535-.055.777-.037,1.474-.056,2.09-.056.074,0,.111.074.111.222s-.037.222-.111.222c-.79,0-1.387.074-1.794.222-.407.148-.679.407-.814.777-.136.37-.204.913-.204,1.628v17.057Z" fill="#FAF8F5"/><path d="M62.9,29.097h-16.058c-.074,0-.111-.074-.111-.222s.037-.222.111-.222c.814,0,1.418-.062,1.813-.185.394-.123.66-.37.795-.74.135-.37.204-.912.204-1.628V8.969c0-.715-.068-1.252-.204-1.609-.136-.357-.401-.604-.795-.74-.395-.135-.999-.204-1.813-.204-.074,0-.111-.074-.111-.222s.037-.222.111-.222h15.392c.247,0,.37.111.37.333l.074,4.81c0,.05-.062.08-.185.092-.124.013-.21-.019-.259-.092-.271-1.406-.839-2.454-1.702-3.145-.864-.69-1.998-1.036-3.404-1.036h-1.517c-.617,0-1.104.068-1.462.204-.358.136-.61.358-.758.666-.148.309-.222.722-.222,1.239v16.909c0,.518.068.943.204,1.276.135.333.352.568.647.703.296.136.715.204,1.258.204h1.813c1.677,0,3.034-.401,4.07-1.203,1.036-.801,1.776-1.992,2.22-3.57.024-.074.105-.099.241-.074.135.025.204.062.204.111-.099.691-.185,1.517-.259,2.479-.074.962-.111,1.85-.111,2.664,0,.37-.185.555-.555.555ZM60.828,20.735c0-1.036-.346-1.825-1.036-2.368-.691-.542-1.727-.814-3.108-.814h-5.18v-.962h5.217c1.381,0,2.405-.234,3.071-.703.666-.468.999-1.147.999-2.035,0-.074.068-.111.204-.111s.204.037.204.111c0,.79-.006,1.406-.019,1.85-.013.444-.019.901-.019,1.369,0,.592.019,1.178.056,1.757.037.58.055,1.215.055,1.906,0,.049-.074.074-.222.074s-.222-.024-.222-.074Z" fill="#FAF8F5"/><path d="M77.071,5.861c2.17,0,3.835.425,4.995,1.276,1.159.851,1.739,2.017,1.739,3.497,0,1.406-.401,2.664-1.202,3.774-.802,1.11-1.844,1.974-3.126,2.59-1.283.617-2.652.925-4.107.925-.296,0-.617-.006-.962-.019-.346-.012-.654-.031-.925-.056v8.251c0,.716.061,1.258.185,1.628.123.37.388.617.795.74.407.124,1.005.185,1.794.185.074,0,.111.074.111.222s-.037.222-.111.222c-.617,0-1.308-.012-2.072-.037-.765-.024-1.604-.037-2.516-.037-.864,0-1.69.013-2.479.037-.79.025-1.493.037-2.109.037-.074,0-.111-.074-.111-.222s.037-.222.111-.222c.814,0,1.418-.062,1.813-.185.394-.123.666-.37.814-.74.148-.37.222-.912.222-1.628V8.969c0-.715-.068-1.252-.203-1.609-.136-.357-.401-.604-.796-.74-.395-.135-.999-.204-1.813-.204-.049,0-.074-.074-.074-.222s.024-.222.074-.222c.617,0,1.313.019,2.091.056.777.037,1.597.055,2.46.055.542,0,1.128-.019,1.757-.055.629-.037,1.264-.074,1.906-.111.641-.037,1.221-.055,1.739-.055ZM80.179,11.929c0-1.43-.167-2.535-.5-3.312s-.802-1.313-1.406-1.609c-.605-.296-1.313-.444-2.127-.444-.962,0-1.646.179-2.054.537-.407.358-.61,1.005-.61,1.942v7.807c.345.05.715.087,1.11.111.395.025.74.037,1.036.037,1.677,0,2.854-.413,3.533-1.239.678-.826,1.018-2.103,1.018-3.83ZM82.88,29.097c-.222,0-.666-.5-1.332-1.499s-1.424-2.38-2.275-4.144c-.851-1.763-1.708-3.755-2.572-5.976l2.59-1.036c1.381,2.985,2.596,5.371,3.645,7.159,1.048,1.789,1.985,3.078,2.812,3.867.826.79,1.609,1.184,2.349,1.184.074,0,.111.074.111.222s-.037.222-.111.222h-5.217Z" fill="#FAF8F5"/><path d="M114.254,28.653c.099,0,.148.074.148.222s-.05.222-.148.222c-.739,0-1.498-.024-2.274-.074-.777-.049-1.523-.074-2.239-.074-.813,0-1.523.025-2.127.074-.605.05-1.276.074-2.017.074-.099,0-.148-.074-.148-.222s.049-.222.148-.222c1.109,0,1.775-.197,1.998-.592.222-.394.037-1.171-.556-2.331l-7.732-15.725,1.517-2.479-7.326,16.502c-.642,1.505-.66,2.652-.055,3.441.604.79,1.634,1.184,3.089,1.184.123,0,.185.074.185.222s-.062.222-.185.222c-.74,0-1.419-.024-2.035-.074-.617-.049-1.394-.074-2.331-.074s-1.683.025-2.238.074c-.555.05-1.239.074-2.054.074-.098,0-.148-.074-.148-.222s.05-.222.148-.222c.666,0,1.24-.135,1.721-.407.481-.271.956-.771,1.424-1.499.468-.727.986-1.745,1.554-3.052l7.955-17.945c.049-.074.16-.111.333-.111s.271.037.296.111l9.065,18.278c.567,1.184,1.073,2.115,1.517,2.793.444.679.863,1.153,1.258,1.424.395.272.814.407,1.258.407ZM94.571,20.032l.481-.925h10.36l.259.925h-11.1Z" fill="none"/><path d="M125.058,5.861c2.17,0,3.835.425,4.995,1.276,1.159.851,1.739,2.017,1.739,3.497,0,1.406-.401,2.664-1.203,3.774s-1.844,1.974-3.126,2.59c-1.283.617-2.652.925-4.107.925-.296,0-.616-.006-.962-.019-.346-.012-.653-.031-.925-.056v8.251c0,.716.062,1.258.185,1.628.123.37.389.617.796.74.407.124,1.005.185,1.795.185.073,0,.11.074.11.222s-.037.222-.11.222c-.617,0-1.309-.012-2.072-.037-.765-.024-1.604-.037-2.517-.037-.863,0-1.689.013-2.479.037-.79.025-1.493.037-2.109.037-.073,0-.11-.074-.11-.222s.037-.222.11-.222c.814,0,1.418-.062,1.813-.185.395-.123.666-.37.813-.74.148-.37.223-.912.223-1.628V8.969c0-.715-.068-1.252-.204-1.609s-.401-.604-.795-.74c-.396-.135-.999-.204-1.813-.204-.05,0-.074-.074-.074-.222s.024-.222.074-.222c.616,0,1.313.019,2.091.056.777.037,1.597.055,2.46.055.543,0,1.129-.019,1.758-.055.629-.037,1.264-.074,1.905-.111.642-.037,1.222-.055,1.739-.055ZM128.167,11.929c0-1.43-.167-2.535-.5-3.312s-.802-1.313-1.406-1.609-1.313-.444-2.127-.444c-.962,0-1.646.179-2.054.537-.407.358-.61,1.005-.61,1.942v7.807c.345.05.715.087,1.11.111.394.025.739.037,1.035.037,1.678,0,2.855-.413,3.534-1.239.678-.826,1.018-2.103,1.018-3.83ZM130.867,29.097c-.222,0-.666-.5-1.331-1.499-.666-.999-1.425-2.38-2.276-4.144-.851-1.763-1.708-3.755-2.571-5.976l2.59-1.036c1.382,2.985,2.596,5.371,3.645,7.159,1.049,1.789,1.985,3.078,2.812,3.867.826.79,1.609,1.184,2.35,1.184.073,0,.11.074.11.222s-.037.222-.11.222h-5.218Z" fill="#FAF8F5"/><path d="M151.513,5.565c.863,0,1.695.043,2.497.13s1.555.209,2.257.37c.703.161,1.338.376,1.906.648.197.099.326.197.389.296.061.099.104.284.129.555l.444,4.884c0,.074-.062.124-.186.148-.123.025-.21-.012-.259-.111-.642-1.998-1.591-3.534-2.849-4.607-1.258-1.073-2.837-1.609-4.736-1.609-1.825,0-3.441.451-4.847,1.351-1.406.901-2.504,2.183-3.293,3.848-.79,1.665-1.185,3.645-1.185,5.938,0,1.678.241,3.219.722,4.625.481,1.406,1.159,2.615,2.035,3.626.875,1.012,1.893,1.794,3.053,2.35,1.159.555,2.429.833,3.811.833,1.851,0,3.367-.481,4.551-1.443,1.185-.962,2.221-2.466,3.108-4.514.024-.074.099-.099.222-.074.123.025.186.062.186.111l-.481,4.403c-.024.296-.068.487-.129.573-.062.087-.191.179-.389.278-1.209.494-2.393.845-3.552,1.054-1.16.209-2.344.314-3.553.314-2.64,0-4.982-.5-7.029-1.499-2.048-.999-3.657-2.405-4.829-4.218s-1.757-3.891-1.757-6.234c0-1.776.345-3.404,1.035-4.884s1.659-2.75,2.905-3.811c1.245-1.06,2.706-1.88,4.384-2.46,1.678-.579,3.49-.87,5.439-.87Z" fill="#FAF8F5"/><path d="M165.424,26.1V8.969c0-.715-.074-1.252-.222-1.609-.148-.357-.432-.604-.852-.74-.419-.135-1.061-.204-1.924-.204-.05,0-.073-.074-.073-.222s.023-.222.073-.222c.642,0,1.356.019,2.146.056.789.037,1.615.055,2.479.055,1.061,0,1.998-.019,2.812-.055.813-.037,1.541-.056,2.183-.056.05,0,.074.074.074.222s-.024.222-.074.222c-.888,0-1.554.074-1.998.222-.443.148-.74.407-.888.777-.148.37-.222.913-.222,1.628v17.057c0,.716.073,1.258.222,1.628.147.37.444.617.888.74.444.124,1.11.185,1.998.185.05,0,.074.074.074.222s-.024.222-.074.222c-.666,0-1.4-.012-2.201-.037-.802-.024-1.733-.037-2.794-.037-.863,0-1.702.013-2.516.037-.814.025-1.53.037-2.146.037-.049,0-.073-.074-.073-.222s.024-.222.073-.222c.863,0,1.505-.062,1.925-.185.419-.123.708-.37.869-.74.16-.37.24-.912.24-1.628ZM167.052,17.553v-.962h16.206v.962h-16.206ZM181.668,9.043c0-.715-.068-1.258-.203-1.628-.136-.37-.433-.629-.889-.777s-1.141-.222-2.053-.222c-.074,0-.111-.074-.111-.222s.037-.222.111-.222c.616,0,1.325.019,2.127.056.802.037,1.732.055,2.794.055.863,0,1.714-.019,2.553-.055.838-.037,1.566-.056,2.183-.056.074,0,.111.074.111.222s-.037.222-.111.222c-.863,0-1.511.068-1.942.204-.432.136-.722.383-.869.74-.148.357-.222.894-.222,1.609v17.131c0,.716.073,1.258.222,1.628.147.37.438.617.869.74.432.124,1.079.185,1.942.185.074,0,.111.074.111.222s-.037.222-.111.222c-.616,0-1.345-.012-2.183-.037-.839-.024-1.689-.037-2.553-.037-1.062,0-1.992.013-2.794.037-.802.025-1.511.037-2.127.037-.074,0-.111-.074-.111-.222s.037-.222.111-.222c.912,0,1.597-.062,2.053-.185.456-.123.753-.37.889-.74.135-.37.203-.912.203-1.628V9.043Z" fill="#FAF8F5"/><path d="M199.39,18.996l-5.957-9.102c-.889-1.356-1.628-2.275-2.22-2.756-.593-.481-1.16-.722-1.702-.722-.074,0-.111-.074-.111-.222s.037-.222.111-.222c.394,0,.801.019,1.221.056.419.037.814.055,1.184.055.69,0,1.4-.006,2.128-.019.728-.012,1.418-.03,2.072-.055.653-.024,1.202-.037,1.646-.037.049,0,.073.074.073.222s-.024.222-.073.222c-.814,0-1.308.21-1.48.629s-.037.95.407,1.591l5.661,8.695-2.96,1.665ZM199.094,17.627l3.515-.333v8.806c0,.716.062,1.258.185,1.628.124.37.383.617.777.74.395.124.999.185,1.813.185.073,0,.11.074.11.222s-.037.222-.11.222c-.617,0-1.302-.012-2.054-.037-.753-.024-1.585-.037-2.498-.037-.863,0-1.696.013-2.497.037-.802.025-1.512.037-2.128.037-.05,0-.073-.074-.073-.222s.023-.222.073-.222c.814,0,1.425-.062,1.832-.185.407-.123.685-.37.832-.74.148-.37.223-.912.223-1.628v-8.473ZM200.944,18.7l4.884-8.029c.789-1.283,1.092-2.312.907-3.09-.186-.777-.857-1.166-2.017-1.166-.05,0-.074-.074-.074-.222s.024-.222.074-.222c.764,0,1.479.019,2.146.056.666.037,1.541.055,2.627.055.616,0,1.116-.019,1.499-.055.382-.037.845-.056,1.387-.056.05,0,.074.074.074.222s-.024.222-.074.222c-.518,0-1.109.191-1.775.574-.666.383-1.32.913-1.961,1.591-.642.679-1.246,1.474-1.813,2.387l-5.143,8.325-.74-.592Z" fill="#FAF8F5"/><path d="M101.191,28.964h8.824c1.464-3.98,2.929-7.96,4.393-11.939-2.999-6.36-7.136-11.543-13.217-16.212-6.081,4.669-10.218,9.852-13.217,16.212,1.464,3.98,2.929,7.96,4.393,11.939h8.824ZM98.759,14.529v.353h-2.182c-1.499,0-3.676-.169-3.68-1.677-.002-.575.35-.826.445-.92.114,1.504,1.446,2.244,3.438,2.244h1.979ZM101.191,17.251c.665.535.857,1.873,0,1.873s-.665-1.338,0-1.873h0ZM101.191,16.024c-.665-.535-.857-1.873,0-1.873s.665,1.338,0,1.873h0ZM100.577,16.637c-.535.665-1.873.857-1.873,0s1.338-.665,1.873,0h0ZM101.804,16.637c.535-.665,1.873-.857,1.873,0s-1.338.665-1.873,0h0ZM99.082,19.069h.353v2.182c0,1.499-.169,3.676-1.677,3.68-.575.002-.826-.35-.92-.445,1.504-.114,2.244-1.446,2.244-3.438v-1.979h0ZM99.082,14.206v-1.979c0-1.993-.74-3.325-2.244-3.438.094-.095.346-.447.92-.445,1.507.004,1.677,2.182,1.677,3.68v2.182h-.353ZM103.299,14.206h-.353v-2.182c0-1.499.169-3.676,1.677-3.68.575-.002.826.35.92.445-1.504.114-2.244,1.445-2.244,3.438v1.979h0ZM101.408,12.62h-.435v-2.047c0-1.097-.153-2.759-1.032-3.506.451-.324.973-.815,1.249-1.225.276.41.799.901,1.249,1.225-.879.747-1.032,2.408-1.032,3.506v2.047h0ZM102.595,12.714h-.353v-2.182c0-1.499.169-3.676,1.677-3.68.575-.002.826.35.92.445-1.504.114-2.244,1.445-2.244,3.438v1.979h0ZM99.787,12.714v-1.979c0-1.993-.74-3.325-2.244-3.438.094-.095.346-.447.92-.445,1.507.004,1.677,2.182,1.677,3.68v2.182h-.353ZM103.299,19.069v1.979c0,1.993.74,3.325,2.244,3.438-.094.095-.346.447-.92.445-1.507-.004-1.677-2.182-1.677-3.68v-2.182h.353ZM101.408,20.655v2.047c0,1.097.153,2.759,1.032,3.506-.451.324-.973.815-1.249,1.225-.276-.41-.799-.902-1.249-1.225.879-.747,1.032-2.408,1.032-3.506v-2.047h.435ZM102.595,20.561v1.979c0,1.993.74,3.325,2.244,3.438-.094.095-.346.447-.92.445-1.507-.004-1.677-2.182-1.677-3.68v-2.182h.353ZM99.787,20.561h.353v2.182c0,1.499-.169,3.676-1.677,3.68-.575.002-.826-.35-.92-.445,1.504-.114,2.244-1.446,2.244-3.438v-1.979h0ZM103.622,14.529h1.979c1.993,0,3.325-.74,3.438-2.244.095.094.447.346.445.92-.004,1.507-2.182,1.677-3.68,1.677h-2.182v-.353h0ZM103.622,18.746v-.353h2.182c1.499,0,3.676.169,3.68,1.677.002.575-.35.826-.445.92-.114-1.504-1.445-2.244-3.438-2.244h-1.979ZM105.208,16.855v-.435h2.047c1.098,0,2.759-.153,3.506-1.032.324.451.815.973,1.225,1.249-.41.276-.902.799-1.225,1.249-.747-.879-2.408-1.032-3.506-1.032h-2.047ZM105.114,18.041v-.353h2.182c1.499,0,3.676.169,3.68,1.677.002.575-.35.826-.445.92-.114-1.504-1.445-2.244-3.438-2.244h-1.979ZM105.114,15.233h1.979c1.993,0,3.325-.74,3.438-2.244.095.094.447.346.445.92-.004,1.507-2.182,1.677-3.68,1.677h-2.182v-.353h0ZM98.759,18.746h-1.979c-1.993,0-3.325.74-3.438,2.244-.095-.094-.447-.346-.445-.92.004-1.507,2.182-1.677,3.68-1.677h2.182v.353h0ZM97.173,16.855h-2.047c-1.097,0-2.759.153-3.506,1.032-.324-.451-.815-.973-1.225-1.249.41-.276.901-.799,1.225-1.249.747.879,2.408,1.032,3.506,1.032h2.047v.435h0ZM97.267,18.041h-1.979c-1.993,0-3.325.74-3.438,2.244-.095-.094-.447-.346-.445-.92.004-1.507,2.182-1.677,3.68-1.677h2.182v.353h0ZM97.267,15.233v.353h-2.182c-1.499,0-3.676-.169-3.68-1.677-.002-.575.35-.826.445-.92.114,1.504,1.445,2.244,3.438,2.244h1.979Z" fill="#FAF8F5" fill-rule="evenodd"/></svg>
